<svg width="605" height="604" xmlns="http://www.w3.org/2000/svg" xmlns:xlink="http://www.w3.org/1999/xlink" xml:space="preserve" overflow="hidden"><defs><clipPath id="clip0"><rect x="102" y="79" width="605" height="604"/></clipPath></defs><g clip-path="url(#clip0)" transform="translate(-102 -79)"><path d="M296.337 244.117C278.721 244.117 264.879 257.958 264.879 275.575 264.879 293.192 278.721 307.033 296.337 307.033 313.954 307.033 327.796 293.192 327.796 275.575 327.796 275.575 327.796 275.575 327.796 275.575 327.796 257.958 313.954 244.117 296.337 244.117ZM296.337 294.45C285.642 294.45 277.462 286.271 277.462 275.575 277.462 264.879 285.642 256.7 296.337 256.7 307.033 256.7 315.212 264.879 315.212 275.575 315.212 286.271 307.033 294.45 296.337 294.45 296.337 294.45 296.337 294.45 296.337 294.45L296.337 294.45Z" transform="matrix(1.00166 0 0 1 102 79)"/><path d="M354.85 246.004 360.512 229.017 342.896 211.4 325.908 217.062C322.762 215.804 319.617 214.546 316.471 213.288L308.292 197.558 283.754 197.558 275.575 213.288C272.429 214.546 269.283 215.804 266.137 217.062L249.15 211.4 231.533 229.017 237.196 246.004C235.308 249.15 234.05 252.296 233.421 255.442L217.692 263.621 217.692 288.158 233.421 296.337C234.679 299.483 235.938 302.629 237.196 305.775L231.533 322.762 249.779 340.379 266.767 334.717C269.913 335.975 273.058 337.233 276.204 338.492L284.383 354.221 308.921 354.221 317.1 338.492C320.246 337.233 323.392 335.975 325.908 334.717L342.896 340.379 360.512 322.762 354.85 305.775C356.108 302.629 357.996 299.483 358.625 296.337L374.354 288.158 374.354 263.621 358.625 255.442C357.996 252.296 356.737 249.15 354.85 246.004ZM361.771 279.979 347.929 286.9 347.3 289.417C346.042 293.821 344.154 297.596 342.267 301.371L341.008 303.887 346.042 318.987 339.75 325.279 325.279 320.246 322.762 321.504C318.987 323.392 315.212 325.279 311.438 325.908L308.292 327.167 301.371 341.008 291.933 341.008 285.012 327.167 282.496 326.538C278.721 325.279 274.317 324.021 271.171 321.504L268.654 320.246 253.554 325.279 246.633 318.358 251.667 303.887 250.408 301.371C248.521 297.596 246.633 293.821 245.375 290.046L244.746 287.529 230.904 280.608 230.904 271.8 244.746 264.879 245.375 262.362C246.633 258.587 247.892 254.183 250.408 251.038L251.667 248.521 246.633 232.792 252.925 225.871 268.025 230.904 270.542 229.646C274.317 227.758 278.092 225.871 282.496 224.613L285.012 223.983 291.933 210.142 300.742 210.142 307.663 223.983 310.179 224.613C313.954 225.871 318.358 227.129 321.504 229.646L324.021 230.904 339.121 225.871 345.413 232.163 340.379 247.262 341.637 249.779C343.525 253.554 345.413 257.329 346.671 261.104L347.3 263.621 361.142 270.542 361.771 279.979Z" transform="matrix(1.00166 0 0 1 102 79)"/><path d="M453.629 279.979 453.629 274.317C453.629 187.492 383.163 117.025 296.337 117.025 209.512 117.025 139.046 187.492 139.046 274.317L139.046 279.979C139.675 298.854 143.45 317.1 149.742 334.717 156.033 351.075 165.471 366.175 176.796 379.387 191.267 395.117 206.996 425.317 213.917 439.158 215.804 442.933 220.208 446.079 224.613 446.079L367.433 446.079C371.837 446.079 376.242 443.562 378.129 439.158 385.05 425.317 400.779 395.117 414.621 379.387 426.575 366.175 435.383 351.075 441.675 334.717 449.225 317.1 453 298.225 453.629 279.979ZM441.046 279.979C440.417 296.967 437.271 313.954 430.979 330.312 425.317 345.413 416.508 359.254 405.812 371.208 390.712 387.567 374.983 417.138 367.433 433.496L225.242 433.496C217.062 417.138 201.333 387.567 186.863 371.208 176.167 359.254 167.988 345.413 161.696 330.312 155.404 314.583 152.258 297.596 151.629 279.979L151.629 274.946C151.629 195.042 216.433 130.238 296.337 130.238 376.242 130.238 441.046 195.042 441.046 274.946L441.046 274.946 441.046 279.979Z" transform="matrix(1.00166 0 0 1 102 79)"/><path d="M366.175 483.829 227.758 483.829C223.983 483.829 221.467 486.346 221.467 490.121 221.467 493.896 223.983 496.413 227.758 496.413L366.175 496.413C369.95 496.413 372.467 493.896 372.467 490.121 372.467 486.346 369.95 483.829 366.175 483.829Z" transform="matrix(1.00166 0 0 1 102 79)"/><path d="M298.225 94.375C302 94.375 304.517 91.8583 304.517 88.0833L304.517 31.4583C304.517 27.6833 302 25.1667 298.225 25.1667 294.45 25.1667 291.933 27.6833 291.933 31.4583L291.933 88.0833C291.933 91.8583 294.45 94.375 298.225 94.375Z" transform="matrix(1.00166 0 0 1 102 79)"/><path d="M107.588 270.542 50.9625 270.542C47.1875 270.542 44.6708 273.058 44.6708 276.833 44.6708 280.608 47.1875 283.125 50.9625 283.125L107.588 283.125C111.363 283.125 113.879 280.608 113.879 276.833 113.879 273.058 110.733 270.542 107.588 270.542Z" transform="matrix(1.00166 0 0 1 102 79)"/><path d="M541.712 270.542 485.087 270.542C481.312 270.542 478.796 273.058 478.796 276.833 478.796 280.608 481.312 283.125 485.087 283.125L541.712 283.125C545.487 283.125 548.004 280.608 548.004 276.833 548.004 273.058 544.858 270.542 541.712 270.542Z" transform="matrix(1.00166 0 0 1 102 79)"/><path d="M158.55 147.854C161.067 150.371 164.842 150.371 167.358 147.854 169.875 145.337 169.875 141.562 167.358 139.046L127.092 98.7792C124.575 96.2625 120.8 96.2625 118.283 98.15 115.767 100.667 115.767 104.442 117.654 106.958 117.654 106.958 117.654 106.958 118.283 107.588L158.55 147.854Z" transform="matrix(1.00166 0 0 1 102 79)"/><path d="M434.125 405.812C431.608 403.296 427.833 403.296 425.317 405.812 422.8 408.329 422.8 412.104 425.317 414.621 425.317 414.621 425.317 414.621 425.317 414.621L465.583 454.888C468.1 457.404 471.875 457.404 474.392 454.888 476.908 452.371 476.908 448.596 474.392 446.079L434.125 405.812Z" transform="matrix(1.00166 0 0 1 102 79)"/><path d="M464.325 99.4083 425.317 138.417C422.8 140.933 422.8 144.708 424.688 147.225 427.204 149.742 430.979 149.742 433.496 147.854 433.496 147.854 433.496 147.854 434.125 147.225L474.392 106.958C476.908 104.442 476.908 100.667 474.392 98.15 471.875 95.6333 468.1 95.6333 465.583 98.15L464.325 99.4083Z" transform="matrix(1.00166 0 0 1 102 79)"/><path d="M158.55 405.812 118.283 446.079C115.767 448.596 115.767 452.371 118.283 454.888 120.8 457.404 124.575 457.404 127.092 454.888 127.092 454.888 127.092 454.888 127.092 454.888L167.358 414.621C169.875 412.104 169.875 408.329 167.358 405.812 164.842 403.296 161.067 403.296 158.55 405.812L158.55 405.812Z" transform="matrix(1.00166 0 0 1 102 79)"/><path d="M296.337 572.542C277.462 572.542 261.733 558.071 259.846 539.196 259.846 535.421 262.362 532.904 265.508 532.275 265.508 532.275 266.137 532.275 266.137 532.275L326.538 532.275C330.312 532.275 332.829 534.792 332.829 538.567 332.829 538.567 332.829 539.196 332.829 539.196 330.942 558.071 315.212 572.542 296.337 572.542ZM274.317 544.858C279.35 556.812 293.192 563.104 305.146 558.7 311.438 556.183 316.471 551.15 318.987 544.858L274.317 544.858Z" transform="matrix(1.00166 0 0 1 102 79)"/></g></svg>