<svg width="621" height="621" xmlns="http://www.w3.org/2000/svg" xmlns:xlink="http://www.w3.org/1999/xlink" xml:space="preserve" overflow="hidden"><defs><clipPath id="clip0"><rect x="286" y="46" width="621" height="621"/></clipPath></defs><g clip-path="url(#clip0)" transform="translate(-286 -46)"><path d="M867.431 302.674 769.461 66.7C766.721 60.1016 759.151 56.9738 752.552 59.7137L516.287 157.819C510.515 160.217 507.284 166.4 508.609 172.509L575.8 482.246C576.241 484.259 577.157 486.138 578.472 487.725 572.028 502.928 562.784 516.783 551.219 528.569L540.539 482.932C538.878 475.843 531.785 471.443 524.696 473.103 522.22 473.683 519.965 474.967 518.202 476.799L480.761 515.722C475.712 520.968 475.873 529.314 481.119 534.362 482.952 536.126 485.256 537.322 487.754 537.806L529.755 545.931C507.9 560.225 481.402 565.611 455.701 560.984L447.098 559.561C392.087 548.687 339.354 577.731 315.905 631.875 314.476 635.154 315.976 638.972 319.256 640.401 322.535 641.829 326.353 640.329 327.782 637.05 345.247 596.769 388.18 561.139 444.821 572.304L453.528 573.74C484.726 579.348 516.859 571.882 542.389 553.092 542.848 552.762 543.489 552.277 543.489 552.277L555.333 602.798C556.429 607.501 560.015 611.226 564.674 612.501 565.811 612.818 566.986 612.979 568.167 612.979 571.753 612.98 575.184 611.52 577.669 608.937L615.111 569.969C620.156 564.719 619.989 556.373 614.74 551.328 612.916 549.575 610.626 548.384 608.144 547.897L559.557 538.498C572.839 525.204 583.409 509.454 590.678 492.124 592.368 491.868 593.989 491.277 595.446 490.384L862.482 318.516C867.748 315.128 869.832 308.456 867.431 302.674ZM527.821 485.797 538.986 534.429C538.986 534.475 538.986 534.514 538.909 534.507L490.225 524.688C490.19 524.68 490.167 524.647 490.174 524.611 490.176 524.598 490.183 524.587 490.193 524.578L527.711 485.765C527.736 485.739 527.777 485.738 527.802 485.764 527.812 485.773 527.819 485.784 527.821 485.797ZM567.927 599.848 556.931 551.255C556.924 551.22 556.946 551.185 556.98 551.178 556.988 551.176 556.995 551.176 557.002 551.177L605.692 560.984C605.727 560.991 605.75 561.024 605.743 561.06 605.741 561.073 605.734 561.085 605.724 561.094L568.063 599.906C568.047 599.942 568.005 599.958 567.97 599.942 567.934 599.926 567.918 599.883 567.934 599.848ZM851.828 299.135 696.766 235.159 760.955 80.2844C760.966 80.2504 761.003 80.232 761.036 80.2431 761.056 80.2495 761.071 80.2648 761.078 80.2844L851.912 299.051C851.926 299.084 851.91 299.122 851.876 299.135 851.86 299.142 851.844 299.142 851.828 299.135ZM848.781 311.969 598.162 473.242C598.133 473.262 598.093 473.255 598.073 473.226 598.06 473.208 598.057 473.185 598.065 473.164L691.778 247.113 848.736 311.866C848.772 311.869 848.797 311.901 848.794 311.936 848.793 311.948 848.788 311.959 848.781 311.969ZM684.779 230.224 529.833 166.319C529.799 166.299 529.788 166.255 529.807 166.222 529.814 166.211 529.823 166.202 529.833 166.196L748.91 75.2388C748.943 75.2255 748.981 75.2416 748.994 75.2748 749.001 75.2902 749.001 75.3074 748.994 75.3228ZM523.015 177.497 679.818 242.184 586.105 468.228C586.094 468.263 586.057 468.281 586.023 468.27 586.004 468.263 585.988 468.248 585.982 468.228L522.924 177.574C522.913 177.54 522.932 177.504 522.966 177.493 522.983 177.488 523 177.489 523.015 177.497Z"/></g></svg>