<svg width="640" height="640" xmlns="http://www.w3.org/2000/svg" xmlns:xlink="http://www.w3.org/1999/xlink" xml:space="preserve" overflow="hidden"><defs><clipPath id="clip0"><rect x="288" y="38" width="640" height="640"/></clipPath></defs><g clip-path="url(#clip0)" transform="translate(-288 -38)"><path d="M525.506 147.771C512.619 147.787 502.185 158.246 502.201 171.133 502.215 183.191 511.414 193.251 523.422 194.343 524.141 194.408 524.851 194.441 525.559 194.441 538.447 194.426 548.882 183.967 548.867 171.08 548.854 159.022 539.655 148.96 527.647 147.868 526.927 147.803 526.215 147.771 525.506 147.771ZM535.493 172.011C534.999 177.139 530.711 181.066 525.559 181.107 525.25 181.107 524.94 181.093 524.629 181.065 519.129 180.565 515.074 175.701 515.574 170.2 516.041 165.058 520.346 161.117 525.509 161.104 525.817 161.104 526.126 161.119 526.44 161.146 531.94 161.647 535.993 166.511 535.493 172.01 535.493 172.011 535.493 172.011 535.493 172.011Z"/><path d="M454.502 147.914C455.221 147.979 455.934 148.011 456.641 148.011 469.528 147.995 479.963 137.536 479.947 124.649 479.932 112.591 470.733 102.531 458.725 101.439 458.006 101.374 457.294 101.341 456.585 101.341 443.698 101.358 433.265 111.818 433.281 124.705 433.296 136.762 442.495 146.822 454.502 147.914ZM456.589 114.675C456.896 114.675 457.205 114.689 457.519 114.717 463.019 115.217 467.072 120.079 466.573 125.578 466.572 125.579 466.572 125.581 466.572 125.581 466.079 130.709 461.793 134.636 456.641 134.678 456.333 134.678 456.023 134.663 455.709 134.636 450.209 134.136 446.155 129.271 446.655 123.771 447.122 118.629 451.426 114.688 456.589 114.675Z"/><path d="M505.313 98.9782C506.033 99.0433 506.745 99.0759 507.453 99.0759 520.341 99.0596 530.774 88.5994 530.758 75.7123 530.743 63.6553 521.544 53.5953 509.537 52.5036 508.817 52.4385 508.105 52.4059 507.397 52.4059 494.509 52.4222 484.076 62.8824 484.092 75.7695 484.107 87.8265 493.306 97.8865 505.313 98.9782ZM507.4 65.7393C507.707 65.7393 508.017 65.7539 508.329 65.7816 513.83 66.2814 517.884 71.1457 517.385 76.6465 516.917 81.787 512.615 85.7277 507.453 85.7425 507.144 85.7425 506.834 85.7279 506.519 85.7002 501.02 85.2007 496.967 80.3377 497.466 74.8384 497.467 74.8371 497.467 74.8357 497.467 74.8343 497.961 69.7065 502.249 65.7804 507.4 65.7393Z"/><path d="M588.023 346.813C578.165 271.763 570.728 208.19 578.943 177.551 581.718 167.204 592.355 161.065 602.701 163.84 603.087 163.943 603.468 164.058 603.846 164.185 613.505 167.716 618.904 178.006 616.32 187.961 612.433 203.052 613.657 235.22 620.331 292.505 623.944 315.975 628.286 340.891 632.479 364.986 634.163 374.652 635.856 384.395 637.525 394.138 642.63 396.413 647.545 398.818 652.269 401.353 650.085 388.439 647.847 375.508 645.617 362.694 641.431 338.664 637.101 313.821 633.54 290.721 629.543 256.373 624.745 208.697 629.23 191.294 633.673 174.539 624.435 157.193 608.052 151.529 599.493 148.635 590.114 149.439 582.173 153.749 574.239 158.035 568.415 165.393 566.066 174.1 557.553 205.842 564.189 266.994 573.627 339.541 578.607 341.589 583.42 344.021 588.023 346.813Z"/><path d="M520.122 226.242C504.885 216.511 484.645 220.975 474.915 236.211 470.239 243.531 468.665 252.409 470.539 260.891 473.657 275.018 480.831 300.305 489.92 332.317 490.768 335.303 491.645 338.391 492.531 341.514 496.381 339.145 500.476 337.2 504.745 335.713 504.07 333.335 503.398 330.967 502.745 328.671 493.722 296.874 486.593 271.757 483.559 258.013 481.238 247.555 487.835 237.195 498.293 234.873 508.752 232.553 519.112 239.149 521.433 249.608 521.437 249.623 521.44 249.639 521.443 249.654 524.204 262.167 531.495 287.837 540.076 318.072L544.036 332.029C549.002 332.56 553.925 333.435 558.769 334.647 558.445 333.676 558.135 332.721 557.811 331.75L552.759 313.931C544.38 284.4 537.14 258.905 534.464 246.783 532.618 238.295 527.453 230.899 520.122 226.242Z"/><path d="M905.487 317.303C893.046 304.193 872.341 303.629 859.204 316.041 844.853 330.317 831.898 345.931 820.513 362.668 830.877 313.456 836.092 272.043 835.07 245.806 835.077 240.078 834.622 234.358 833.709 228.703 830.61 210.926 813.687 199.027 795.909 202.127 779.937 204.911 768.423 218.987 768.859 235.194 768.69 237.695 768.815 240.208 769.23 242.681 769.503 244.237 769.699 245.995 769.823 247.264 768.592 300.233 757.869 325.109 741.633 362.765 737.577 372.173 733.091 382.57 728.371 394.347 728.175 392.472 728.039 391.177 728.013 390.832L727.043 378.11C720.695 295.48 716.509 240.897 743.839 186.906 751.673 171.325 746.666 152.349 732.166 142.661 724.429 137.977 715.087 136.741 706.398 139.25 697.727 141.728 690.457 147.66 686.287 155.656 670.057 186.906 661.163 230.447 659.087 288.807 657.851 330.804 657.315 369.401 657.471 404.225 662.155 406.913 666.621 409.725 670.867 412.661 670.573 375.803 671.081 334.539 672.413 289.237 674.412 232.941 682.824 191.255 698.123 161.802 703.055 152.293 714.761 148.583 724.271 153.514 724.63 153.701 724.983 153.898 725.33 154.107 733.86 160.165 736.67 171.553 731.938 180.884 702.928 238.202 707.465 297.316 713.748 379.133L714.718 391.841C714.777 392.583 715.395 398.482 716.085 405.025L716.196 406.034C716.824 411.965 722.142 416.265 728.074 415.637 732.099 415.211 735.549 412.57 737.01 408.794 743.032 393.189 748.794 379.829 753.872 368.045 770.122 330.357 781.867 303.13 783.136 246.939 782.967 244.549 782.707 242.349 782.368 240.383 782.113 238.851 782.052 237.294 782.185 235.747 782.201 235.52 782.203 235.291 782.192 235.064 781.803 224.387 790.143 215.416 800.82 215.027 810.472 214.675 818.905 221.495 820.578 231.008 821.371 236.007 821.761 241.063 821.743 246.125 822.973 277.818 814.217 335.331 798.306 399.966 797.425 403.541 799.608 407.152 803.183 408.033 806.167 408.768 809.268 407.367 810.689 404.641 825.821 375.573 845.269 348.965 868.371 325.721 876.157 318.361 888.435 318.707 895.795 326.493 903.156 334.279 902.81 346.558 895.024 353.918 894.067 354.836 799.607 446.665 824.751 552.544L826.613 563.254C829.057 576.815 824.53 590.699 814.562 600.213 782.244 630.793 701.476 651.333 613.579 651.333 524.681 651.333 455.988 632.072 422.051 607.753 413.037 607.336 404.183 605.213 395.96 601.498 424.921 638.514 510.185 664.667 613.579 664.667 706.072 664.667 788.559 643.169 823.729 609.901 836.947 597.319 842.966 578.94 839.751 560.975L837.856 550.064C837.83 549.927 837.804 549.791 837.771 549.653 814.308 451.47 903.345 364.419 904.217 363.579 917.341 351.149 917.909 330.435 905.487 317.303Z"/><path d="M357.117 417.929C358.955 418.593 360.78 419.305 362.57 420.152L362.577 420.155C363.364 414.973 364.837 409.92 366.958 405.127 350.402 358.993 331.247 316.923 317.114 299.96 310.841 292.602 310.827 281.781 317.081 274.407 320.753 270.177 326.083 267.753 331.684 267.766L331.932 267.773C337.568 267.835 342.898 270.347 346.535 274.654 360.079 290.714 379.331 328.899 397.065 374.433 401.102 372.544 405.305 371.033 409.621 369.919 391.209 322.509 371.406 283.461 356.723 266.053 345.046 252.233 324.376 250.495 310.556 262.173 309.325 263.213 308.172 264.343 307.108 265.552 296.514 277.874 296.415 296.058 306.873 308.495 320.561 324.925 340.381 369.939 357.117 417.929Z"/><path d="M416.193 368.509C420.721 367.74 425.305 367.343 429.897 367.323 427.129 359.335 424.347 351.4 421.613 343.599 392.368 260.201 374.875 207.447 383.435 175.168 385.24 168.391 390.553 163.109 397.342 161.347 404.989 159.597 412.977 162.211 418.11 168.143 421.974 172.716 423.103 179.003 421.072 184.635 417.993 195.279 421.079 215.181 431.189 249.485 440.363 275.617 453.129 305.754 464.399 332.349 468.053 340.971 471.658 349.513 475.213 357.976 476.137 356.61 477.085 355.258 478.133 353.967 480.225 351.429 482.534 349.079 485.036 346.944 482.272 340.375 479.499 333.799 476.678 327.141 465.487 300.735 452.804 270.8 443.872 245.396 432.83 207.87 432.342 193.658 433.885 188.333 437.279 178.13 434.927 166.891 427.726 158.905 419.299 149.431 406.319 145.401 394.009 148.437 382.553 151.407 373.586 160.319 370.545 171.757 360.988 207.798 378.943 262.212 409.035 348.013 411.399 354.759 413.797 361.617 416.193 368.509Z"/><path d="M621.569 470.705C621.569 477.021 626.689 482.141 633.004 482.141 639.32 482.141 644.44 477.021 644.44 470.705 644.44 464.389 639.32 459.269 633.004 459.269 626.689 459.27 621.569 464.39 621.569 470.705Z"/><path d="M398.905 571.879C406.617 578.332 416.457 581.68 426.505 581.268 441.879 580.922 456.699 575.459 468.619 565.743 476.654 568.505 484.857 570.755 493.177 572.479 492.259 592.827 499.286 606.366 512.767 609.889 516.169 610.761 519.668 611.195 523.18 611.181 544.91 611.181 568.973 596.006 582.394 574.043 635.599 564.201 675.02 539.769 690.739 506.821 696.046 495.917 696.017 483.173 690.661 472.292 677.803 446.311 647.739 424.391 605.866 410.412 605.717 409.911 605.517 409.434 605.357 408.937 605.347 408.864 605.323 408.793 605.286 408.729 594.531 377.805 565.085 357.325 532.351 358 516.947 358.062 505.669 362.36 498.837 370.779 492.072 380.324 489.717 392.309 492.367 403.705 485.185 405.074 478.245 406.727 471.661 408.638 459.886 399.286 445.33 394.125 430.293 393.971 419.604 393.595 409.117 396.955 400.636 403.473 386.653 415.275 384.346 435.952 395.382 450.545 394.733 451.035 394.125 451.488 393.549 451.916 392.459 452.729 391.453 453.48 390.467 454.256 388.003 456.209 384.953 457.277 381.808 457.287 379.821 457.289 377.857 456.849 376.059 456L351.19 444.265C334.156 436.189 313.801 443.45 305.724 460.483 304.659 462.731 303.842 465.089 303.288 467.515 301.993 473.451 301.348 479.511 301.365 485.586L301.365 487.847C301.349 493.922 301.993 499.981 303.286 505.917 306.716 521.519 320.601 532.59 336.575 532.46L336.578 532.46C341.633 532.463 346.624 531.338 351.19 529.167L376.09 517.418C377.913 516.557 379.904 516.111 381.919 516.111 384.889 516.108 387.777 517.083 390.137 518.885 390.877 519.451 391.627 519.998 392.415 520.574 393.383 521.282 394.437 522.053 395.645 522.984 382.465 548.63 389.993 563.682 398.905 571.879ZM491.945 417.427C476.615 462.957 475.91 512.141 489.931 558.091 484.447 556.769 479.091 555.202 472.925 553.123 458.679 510.229 459.565 463.749 475.433 421.428 480.685 419.906 486.251 418.589 491.945 417.427ZM457.505 547.999C439.168 539.253 421.756 528.688 405.531 516.463 397.189 496.736 397.209 474.469 405.586 454.756 422.742 443.609 440.863 434.022 459.732 426.111 446.921 465.62 446.146 508.047 457.505 547.999ZM407.931 562.064C405.21 559.563 397.324 552.282 405.476 533.381 420.167 543.977 435.856 553.115 452.32 560.666 444.484 565.271 435.593 567.775 426.505 567.935 419.808 568.288 413.209 566.203 407.931 562.064ZM523.18 597.847C520.806 597.862 518.44 597.574 516.139 596.989 507.625 594.764 506.328 583.045 506.457 575.038 520.204 576.489 534.019 577.205 547.843 577.179 554.197 577.18 559.507 576.887 563.94 576.507 553.871 588.93 539.125 596.65 523.18 597.847ZM576.547 561.415C552.775 563.625 528.855 563.762 505.059 561.823 496.884 537.907 492.895 512.759 493.267 487.486 493.663 461.896 498.575 436.577 507.779 412.696 535.683 411.248 563.659 413.323 591.044 418.873 560.538 460.531 561.517 517.41 593.437 557.995L581.83 560.572C580.088 560.962 578.324 561.243 576.547 561.414ZM607.507 554.048C575.089 517.204 573.588 462.471 603.938 423.905 607.935 425.285 611.877 426.698 615.619 428.221 586.434 464.027 587.562 515.723 618.281 550.222 614.795 551.576 611.215 552.86 607.508 554.048ZM678.713 478.21C682.241 485.425 682.239 493.866 678.706 501.079 670.324 518.648 653.763 533.557 631.159 544.61 601.183 514.216 599.896 465.789 628.216 433.847 652.718 445.845 670.265 461.14 678.713 478.21ZM509.189 379.181C513.377 374.022 521.181 371.382 532.384 371.333 556.253 370.779 578.37 383.815 589.445 404.966 561.763 399.57 533.505 397.732 505.358 399.497 503.9 392.485 505.278 385.181 509.189 379.182ZM409.443 413.485C415.516 409.171 422.851 406.997 430.294 407.305 438.88 407.385 447.315 409.569 454.861 413.667 437.399 421.001 420.533 429.68 404.414 439.625 399.585 430.836 401.698 419.855 409.443 413.485ZM345.499 517.11C342.712 518.437 339.664 519.125 336.577 519.127 326.867 519.226 318.412 512.515 316.304 503.036 315.22 498.046 314.682 492.953 314.699 487.847L314.699 485.586C314.681 480.48 315.22 475.387 316.307 470.397 318.411 460.917 326.865 454.205 336.575 454.307 339.663 454.307 342.712 454.996 345.499 456.323L362.77 464.471C359.33 479.046 359.491 494.239 363.241 508.737ZM375.657 503.558C373.11 492.443 372.971 480.911 375.248 469.737 379.179 470.823 383.319 470.909 387.292 469.987 385.375 481.089 385.521 492.448 387.721 503.497 385.82 503.045 383.875 502.803 381.92 502.777 379.809 502.792 377.707 503.055 375.657 503.558Z"/></g></svg>