<svg width="643" height="643" xmlns="http://www.w3.org/2000/svg" xmlns:xlink="http://www.w3.org/1999/xlink" xml:space="preserve" overflow="hidden"><defs><clipPath id="clip0"><rect x="64" y="24" width="643" height="643"/></clipPath></defs><g clip-path="url(#clip0)" transform="translate(-64 -24)"><path d="M660.561 412.273C645.794 412.326 632.811 422.061 628.624 436.223L465.937 421.867C464.055 403.685 447.789 390.472 429.606 392.355 425.72 392.757 421.936 393.844 418.429 395.566L368.444 329.588C382.042 317.162 382.992 296.067 370.566 282.469 359.73 270.611 341.98 268.162 328.337 276.643L293.089 230.116C303.499 214.877 299.586 194.084 284.347 183.673 269.108 173.262 248.315 177.177 237.904 192.415 237.027 193.7 236.24 195.045 235.549 196.439L144.208 191.873C140.849 173.694 123.39 161.68 105.21 165.038 87.0311 168.397 75.0167 185.857 78.3753 204.036 81.7341 222.215 99.194 234.23 117.373 230.871 130.564 228.434 141.025 218.358 143.956 205.269L232.062 209.676C232.033 210.237 231.895 210.767 231.895 211.334 231.833 229.768 246.727 244.762 265.162 244.824 271.623 244.845 277.953 242.99 283.381 239.485L318.478 285.812C307.694 300.68 311.004 321.476 325.872 332.26 334.856 338.777 346.499 340.382 356.911 336.541L407.775 403.682C395.552 417.397 396.761 438.424 410.475 450.647 415.014 454.692 420.575 457.416 426.554 458.523L430.523 514.127C412.747 519.072 402.345 537.49 407.29 555.265 412.233 573.04 430.651 583.442 448.427 578.498 457.874 575.87 465.69 569.224 469.803 560.322L561.521 582.164C566.498 599.924 584.93 610.286 602.69 605.309 620.45 600.332 630.812 581.9 625.835 564.14 623.394 555.429 617.523 548.081 609.565 543.777L649.497 477.225C653.043 478.528 656.786 479.213 660.563 479.252 679.058 479.252 694.052 464.258 694.052 445.762 694.052 427.267 679.058 412.273 660.563 412.273ZM111.332 218.033C100.235 218.033 91.2384 209.037 91.2384 197.94 91.2384 186.842 100.235 177.846 111.332 177.846 122.43 177.846 131.426 186.842 131.426 197.94 131.414 209.032 122.425 218.021 111.332 218.033ZM245.29 211.335C245.29 200.238 254.286 191.242 265.384 191.242 276.482 191.242 285.478 200.238 285.478 211.335 285.478 222.433 276.482 231.429 265.384 231.429 254.292 231.417 245.303 222.428 245.29 211.335ZM325.665 305.106C325.665 294.008 334.661 285.012 345.759 285.012 356.857 285.012 365.853 294.008 365.853 305.106 365.853 316.204 356.857 325.2 345.759 325.2 334.667 325.188 325.678 316.199 325.665 305.106ZM412.738 425.669C412.738 414.571 421.734 405.575 432.832 405.575 443.93 405.575 452.926 414.571 452.926 425.669 452.926 436.766 443.93 445.762 432.832 445.762 421.74 445.75 412.75 436.761 412.738 425.669ZM439.53 566.325C428.432 566.325 419.436 557.329 419.436 546.231 419.436 535.133 428.432 526.137 439.53 526.137 450.628 526.137 459.624 535.133 459.624 546.231 459.612 557.324 450.622 566.313 439.53 566.325ZM593.582 593.117C582.485 593.117 573.488 584.121 573.488 573.023 573.488 561.925 582.485 552.929 593.582 552.929 604.68 552.929 613.676 561.925 613.676 573.023 613.664 584.115 604.675 593.105 593.582 593.117ZM596.322 539.811C595.403 539.735 594.521 539.533 593.582 539.533 577.006 539.582 562.967 551.764 560.583 568.168L472.912 547.294C472.923 546.933 473.02 546.596 473.02 546.231 472.967 529.468 460.508 515.336 443.884 513.182L439.965 458.355C451.82 455.712 461.313 446.854 464.768 435.209L627.456 449.564C628.348 457.537 632.092 464.919 637.999 470.349ZM660.561 465.856C649.464 465.856 640.468 456.86 640.468 445.762 640.468 434.665 649.464 425.669 660.561 425.669 671.659 425.669 680.655 434.665 680.655 445.762 680.643 456.855 671.654 465.844 660.561 465.856Z"/><path d="M620.374 294.039C628.715 264.219 649.445 239.408 677.306 225.896 649.407 212.432 628.661 187.602 620.374 157.753 612.032 187.573 591.302 212.384 563.442 225.896 591.302 239.408 612.032 264.219 620.374 294.039ZM620.36 190.83C628.233 204.434 638.705 216.356 651.179 225.919 638.719 235.484 628.254 247.398 620.374 260.986 612.488 247.386 602.011 235.465 589.539 225.896 602.004 216.333 612.476 204.419 620.36 190.83Z"/><path d="M183.994 445.764C178.254 466.281 163.991 483.352 144.822 492.649 163.991 501.946 178.254 519.017 183.994 539.535 189.733 519.017 203.995 501.946 223.165 492.649 203.97 483.385 189.696 466.301 183.994 445.764ZM183.994 509.021C179.845 502.968 174.944 497.467 169.409 492.649 174.938 487.836 179.834 482.341 183.98 476.296 188.125 482.349 193.023 487.85 198.557 492.667 193.031 497.48 188.137 502.975 183.994 509.021Z"/><path d="M506.509 147.46C510.032 134.865 518.787 124.386 530.555 118.678 518.772 112.99 510.01 102.502 506.509 89.8941 502.986 102.49 494.231 112.97 482.464 118.678 494.231 124.386 502.986 134.865 506.509 147.46Z"/></g></svg>